#
# generated by kHED
#
mtllib export_obj_khed.mtl
# vertices:
v 0.000000 0.000000 240.000000
v 320.000000 0.000000 240.000000
v 0.000000 0.000000 0.000000
v 320.000000 0.000000 0.000000
v 0.000000 48.000000 0.000000
v 80.000000 48.000000 0.000000
v 0.000000 0.000000 0.000000
v 80.000000 0.000000 0.000000
v 112.000000 48.000000 0.000000
v 192.000000 48.000000 0.000000
v 112.000000 0.000000 0.000000
v 192.000000 0.000000 0.000000

# texture coords:
vt 0.000000 1.000000 0.0
vt 1.000000 1.000000 0.0
vt 1.000000 0.000000 0.0
vt 0.000000 1.000000 0.0
vt 1.000000 0.000000 0.0
vt 0.000000 0.000000 0.0
vt 0.000000 1.000000 0.0
vt 1.000000 0.000000 0.0
vt 1.000000 1.000000 0.0
vt 0.000000 1.000000 0.0
vt 0.000000 0.000000 0.0
vt 1.000000 0.000000 0.0
vt 0.000000 1.000000 0.0
vt 1.000000 0.000000 0.0
vt 1.000000 1.000000 0.0
vt 0.000000 1.000000 0.0
vt 0.000000 0.000000 0.0
vt 1.000000 0.000000 0.0

# normals:
vn 0.000000 1.000000 0.000000
vn 0.000000 1.000000 0.000000
vn 0.000000 1.000000 0.000000
vn 0.000000 1.000000 0.000000
vn 0.000000 1.000000 0.000000
vn 0.000000 1.000000 0.000000
vn 0.000000 0.000000 1.000000
vn 0.000000 0.000000 1.000000
vn 0.000000 0.000000 1.000000
vn 0.000000 0.000000 1.000000
vn 0.000000 0.000000 1.000000
vn 0.000000 0.000000 1.000000
vn 0.000000 0.000000 1.000000
vn 0.000000 0.000000 1.000000
vn 0.000000 0.000000 1.000000
vn 0.000000 0.000000 1.000000
vn 0.000000 0.000000 1.000000
vn 0.000000 0.000000 1.000000

# triangles:
g Plane 1
usemtl floor
s 0
f 1/1/1 2/2/2 4/3/3
f 1/4/4 4/5/5 3/6/6
g Plane 2
usemtl wall_1
s 1
f 5/7/7 8/8/8 6/9/9
f 5/10/10 7/11/11 8/12/12
g Plane 2 - Duplicate
usemtl wall_1
f 9/13/13 12/14/14 10/15/15
f 9/16/16 11/17/17 12/18/18

g